<svg xmlns="http://www.w3.org/2000/svg" xml:space="preserve" viewBox="0 0 224 224"><path fill="#b2b8c4" d="M35.52 198.73c-.25 11.05 2.34 19.7 9.3 21.04 8.08 1.57 12.27-6.5 14.41-16.1z"/><path fill="#fff" d="M200 80.5V68.63h9.77c4.8 0 6.68-6.24 2.68-8.9L129.63 4.85a4.85 4.85 0 0 0-5.36 0L41.45 59.73a4.85 4.85 0 0 0 2.68 8.89h9.76V80.5h28.78v89.48h-31.7v10.97H42.1v10.7h169.7v-10.7h-8.87v-10.97h-6.28v-4.18c0-2.9-2.2-5.28-5.02-5.56v-70a5.6 5.6 0 0 0 5.02-5.56V80.5H200z"/><path fill="#e2e2e2" d="M171.87 98.74a3.55 3.55 0 0 0-3.55 3.55v45.92a3.55 3.55 0 1 0 7.1 0V102.3a3.55 3.55 0 0 0-3.55-3.55zm10.51 0a3.55 3.55 0 0 0-3.55 3.55v45.92a3.55 3.55 0 1 0 7.1 0V102.3a3.55 3.55 0 0 0-3.55-3.55z"/><path fill="#e2e2e2" d="M213.76 57.75 130.94 2.86a7.21 7.21 0 0 0-7.98 0L40.14 57.75a7.1 7.1 0 0 0-2.93 8.1A7.1 7.1 0 0 0 44.13 71h7.38v9.52a2.37 2.37 0 0 0 2.38 2.37h101.34v1.81a7.97 7.97 0 0 0 5.02 7.4v66.33a7.97 7.97 0 0 0-5.02 7.39v1.81H50.96a2.38 2.38 0 0 0-2.37 2.37v8.6h-6.5a2.38 2.38 0 0 0-2.37 2.37v10.7a2.37 2.37 0 0 0 2.38 2.37h169.7a2.38 2.38 0 0 0 2.37-2.38v-10.7a2.37 2.37 0 0 0-2.37-2.37h-6.5V170a2.37 2.37 0 0 0-2.37-2.37h-3.9v-1.81a7.97 7.97 0 0 0-5.02-7.4V92.1a7.97 7.97 0 0 0 5.01-7.4v-1.8h.99a2.38 2.38 0 0 0 2.37-2.38V71h7.39a7.1 7.1 0 0 0 6.92-5.14 7.1 7.1 0 0 0-2.93-8.1zm-4.34 131.53H44.47v-5.94h164.95v5.94zm-8.86-10.7H53.34v-6.2h147.22zm-6.29-12.77v1.81h-34.29v-1.81a3.22 3.22 0 0 1 3.22-3.22h27.86a3.22 3.22 0 0 1 3.21 3.22zM165 157.84V92.66h24.26v65.18zm29.27-73.15a3.22 3.22 0 0 1-3.21 3.22H163.2a3.22 3.22 0 0 1-3.22-3.22v-1.8h34.3zm3.36-6.56H56.26V71h141.37zm14.5-13.65a2.4 2.4 0 0 1-2.36 1.76H44.13a2.4 2.4 0 0 1-2.37-1.76 2.4 2.4 0 0 1 1-2.77l82.82-54.89a2.47 2.47 0 0 1 2.74 0l82.82 54.89a2.4 2.4 0 0 1 1 2.77z"/><path fill="#95e0e8" d="M91.7 126.23c-14.68 0-27.38 9.89-33.51 24.28l-4.79-4.46c-9.15 9.15-17.46 34.26-17.88 52.68l-.01 1.2s8.86 6.5 23.72 3.74a90.61 90.61 0 0 0 1.74-12.06c6.76 8.33 18 11.83 30.73 11.83 20.67 0 37.43-9.23 37.43-33.42 0-24.18-16.76-43.8-37.43-43.8z"/><path fill="#70838e" d="M46.81 222.34c-.84 0-1.66-.09-2.45-.24-7.54-1.46-11.52-9.78-11.21-23.43l4.75.11c-.34 14.93 4.47 18.1 7.37 18.66 5.37 1.03 9.3-3.77 11.64-14.3l4.64 1.04c-3.25 14.54-9.4 18.16-14.74 18.16z"/><path fill="#63d3d6" d="M51.97 206.73c-11.06 0-17.54-4.65-17.87-4.89a2.37 2.37 0 0 1-.97-1.94l.02-1.2c.44-19.5 9.12-44.88 18.57-54.33a2.37 2.37 0 1 1 3.36 3.36c-8.56 8.56-16.73 32.78-17.18 50.9 2.43 1.37 9.2 4.43 19.34 2.96 2.3-11.62 1.76-25.04 1.76-25.18a2.38 2.38 0 0 1 4.74-.2c.03.62.62 15.41-2.2 27.98-.2.92-.94 1.64-1.88 1.81-2.76.51-5.33.73-7.7.73zm7.26-3.06z"/><path fill="#63d3d6" d="M67.67 173.53a5.5 5.5 0 0 1-1.94-.35c-2.71-1.01-4.9-3.86-5.98-7.81-1.36-4.94-1.19-12.9 3.77-19.07l3.7 2.97c-3.59 4.47-4.04 10.68-2.9 14.84.66 2.39 1.84 4.16 3.08 4.62 1.82.68 7.33-4.98 11.34-11.65a2.38 2.38 0 0 1 2.04-1.16h21.83c.84 0 1.61.44 2.04 1.16 4.01 6.67 9.52 12.33 11.34 11.65 1.24-.46 2.42-2.23 3.07-4.62 1.15-4.16.7-10.37-2.9-14.84l3.71-2.97c4.96 6.18 5.13 14.13 3.77 19.07-1.08 3.95-3.26 6.8-5.98 7.81-3.33 1.25-7.19-.8-11.79-6.26a63.7 63.7 0 0 1-4.57-6.25H82.09c-.9 1.4-2.57 3.87-4.58 6.25-3.73 4.43-6.97 6.61-9.84 6.61z"/><path fill="#767576" d="M108.73 194.22s-5.38 7.62-17.03 10.09c-11.66-2.47-17.04-10.1-17.04-10.1 2.3-17.54 10.47-28.19 11.08-28.96-.24 0-.48-.02-.72-.04a7.56 7.56 0 0 1-6.93-6.9 52.5 52.5 0 0 1 0-8.71 7.56 7.56 0 0 1 6.93-6.92c4.45-.33 8.9-.33 13.36 0a7.55 7.55 0 0 1 6.92 6.92c.25 2.9.25 5.8 0 8.7a7.55 7.55 0 0 1-6.92 6.91c-.24.02-.48.04-.73.04.61.77 8.78 11.42 11.08 28.97z"/><path fill="#5f5c5d" d="M111.09 193.9a67.9 67.9 0 0 0-9.46-27.06 9.88 9.88 0 0 0 6.04-8.34c.26-3.02.26-6.08 0-9.1a9.87 9.87 0 0 0-9.12-9.08 92.54 92.54 0 0 0-13.7 0 9.87 9.87 0 0 0-9.13 9.08 54.83 54.83 0 0 0 0 9.1 9.88 9.88 0 0 0 6.04 8.34 67.9 67.9 0 0 0-9.45 27.07c-.08.59.07 1.19.41 1.67.24.35 6.06 8.42 18.49 11.05a2.4 2.4 0 0 0 .98 0c12.43-2.63 18.24-10.7 18.48-11.05.35-.48.5-1.08.42-1.67zm-30.63-44.1a5.2 5.2 0 0 1 4.74-4.75 87.44 87.44 0 0 1 13 0 5.2 5.2 0 0 1 4.74 4.75 50 50 0 0 1 0 8.3 5.2 5.2 0 0 1-4.74 4.74c-4.31.32-8.69.32-13 0a5.2 5.2 0 0 1-4.74-4.74 49.86 49.86 0 0 1 0-8.3zm11.24 52.08c-8.25-1.9-13-6.6-14.54-8.36 2-13.75 7.7-22.91 9.73-25.81a92.89 92.89 0 0 0 9.62 0c2.02 2.9 7.71 12.06 9.73 25.81a27.72 27.72 0 0 1-14.54 8.36z"/><path fill="#b2b8c4" d="M151.96 41.35c-7.44-7.44-31.16 6.1-41.61 12.67-5.17-.86-11.84-1.21-19.48-1.18-7.64-.03-14.31.32-19.48 1.18-10.45-6.57-34.17-20.1-41.61-12.67-7.4 7.4 1.04 27.68 5.38 36.73a51.94 51.94 0 0 0-7 26.3c0 7.05.84 14.1 2.53 21.15a36.22 36.22 0 0 0 28.05 27.14 161.77 161.77 0 0 0 32.13 3.25c10.71 0 21.42-1.09 32.13-3.25a36.21 36.21 0 0 0 28.05-27.14 90.4 90.4 0 0 0 2.53-21.16c0-8.16-1.87-17.63-7-26.29 4.33-9.03 12.78-29.33 5.38-36.73z"/><path fill="#95a1b3" d="M114.72 55.19c-.22 11.13-3.53 20-7.57 20-4.19 0-7.58-9.47-7.58-21.15l.01-.74c2.71.14 5.43.36 8.14.65 2.39.25 4.73.67 7 1.24z"/><path fill="#fff" d="M143.24 59.33s1.2 2.74 1.4 5.8c.2 2.84-1.52 5-3.75 5.91a51.59 51.59 0 0 0-17.05-12.74 5.99 5.99 0 0 1 1.96-4.19c5.03-4.57 11.98-9.5 16.9-7.5 8.57 3.5.54 12.72.54 12.72z"/><path fill="#70838e" d="M153.64 39.67c-7.84-7.84-27.98 2-43.8 11.87-4.96-.74-11.3-1.1-18.96-1.07-10.91-.04-19.15.7-24.51 2.22-3.33.94-6.5 2.1-9.46 3.42a2.38 2.38 0 0 0 1.95 4.33c2.74-1.23 5.7-2.3 8.8-3.19 4.94-1.4 12.74-2.08 23.22-2.03 10.46-.05 18.26.63 23.2 2.03 3.1.89 6.06 1.96 8.8 3.2a2.38 2.38 0 0 0 1.95-4.33 68.7 68.7 0 0 0-8.3-3.08c17.1-10.1 29.83-13.93 33.75-10 4.07 4.06 2.53 15.2-4.06 30.14a49.37 49.37 0 0 0-4.94-5.83 2.38 2.38 0 0 0-3.38 3.34c11.57 11.69 13.3 26.12 13.3 33.68 0 6.85-.83 13.78-2.46 20.6a34.03 34.03 0 0 1-26.21 25.37 160.12 160.12 0 0 1-31.66 3.2 160.5 160.5 0 0 1-31.66-3.2 34.03 34.03 0 0 1-26.2-25.36 88.45 88.45 0 0 1-2.47-20.6c0-7.57 1.72-22 13.3-33.7a2.38 2.38 0 0 0-3.38-3.33c-12.77 12.9-14.68 28.73-14.68 37.02 0 7.23.88 14.53 2.6 21.72a38.8 38.8 0 0 0 29.89 28.9 164.92 164.92 0 0 0 32.6 3.3c10.82 0 21.78-1.1 32.6-3.3a38.8 38.8 0 0 0 29.89-28.9 93.21 93.21 0 0 0 2.6-21.72c0-6.1-1.05-16.3-6.7-26.4 5.32-11.39 12.31-30.36 4.38-38.3z"/><path fill="#5f5c5d" d="M124.48 109.95a7.04 7.04 0 1 0-14.07 0 7.04 7.04 0 0 0 14.07 0zm-53.15 0a7.03 7.03 0 1 0-14.07 0 7.03 7.03 0 0 0 14.07 0z"/><path fill="#95a1b3" d="M135.25 122.52h-11.12a2.38 2.38 0 0 1 0-4.75h11.12a2.38 2.38 0 0 1 0 4.75zm-2.03 10.44c-.27 0-.55-.05-.82-.15l-9.1-3.37a2.38 2.38 0 0 1 1.65-4.45l9.1 3.37a2.37 2.37 0 0 1-.83 4.6zM57.6 122.52H46.5a2.38 2.38 0 0 1 0-4.75h11.1a2.38 2.38 0 0 1 0 4.75zm-9.09 10.44a2.38 2.38 0 0 1-.82-4.6l9.1-3.37a2.38 2.38 0 0 1 1.64 4.45l-9.1 3.37c-.26.1-.54.15-.82.15z"/><path fill="#fff" d="M112.98 96.61h-5.83a2.38 2.38 0 0 1 0-4.75h5.83a2.38 2.38 0 0 1 0 4.75zm-38.38 0h-5.84a2.38 2.38 0 0 1 0-4.75h5.83a2.38 2.38 0 0 1 0 4.75z"/><path fill="#70838e" d="M103.25 109.1a2.37 2.37 0 0 0-2.88 1.73 3.62 3.62 0 0 1-7.12-.89v-.89h.74a2.38 2.38 0 0 0 0-4.75h-6.24a2.38 2.38 0 0 0 0 4.75h.75v.9a3.62 3.62 0 0 1-7.13.88 2.38 2.38 0 0 0-4.6 1.16 8.35 8.35 0 0 0 14.1 3.79 8.35 8.35 0 0 0 14.1-3.8 2.37 2.37 0 0 0-1.72-2.87z"/><ellipse cx="32.41" cy="81.92" fill="#767576" rx="54.62" ry="30.26" transform="rotate(-22)"/><path fill="#767576" d="M93.4 50.13c-1 4.28-9.53 15.57-28.14 23.23-18.6 7.66-32.6 5.66-36.32 3.32 0 0-12.46-38.6-.07-46.04 8.16-4.9 13.96.19 20.38 3.82 2-7.1 2.52-14.8 11.77-17.06C75.05 13.95 93.4 50.13 93.4 50.13z"/><path fill="#fff" d="M93.4 50.13c-1 4.28-9.53 15.57-28.14 23.23-18.6 7.66-32.6 5.66-36.32 3.32 0 0-1.47-4.54-2.9-10.8 5.45 1.81 18.18 2.5 34.41-4.19C76.7 55 85.25 45.55 87.84 40.42a137.4 137.4 0 0 1 5.55 9.71z"/><path fill="#5f5c5d" d="M113.86 41.7c-4.17-10.13-16.59-15.88-33.33-15.52-7.48-8.8-14.22-12.53-20.07-11.09-9.3 2.27-11.14 9.4-12.72 15.72-5.57-3.38-11.9-7.14-20.1-2.2-5.17 3.1-7.32 10.5-6.44 22.01C9.06 62.15 4.3 74.98 8.47 85.11c3.42 8.3 12.25 13.69 24.87 15.15 2.27.26 4.62.4 7.03.4 10.43 0 21.97-2.44 33.23-7.08 13.85-5.7 25.67-14.1 33.28-23.61 7.93-9.92 10.4-19.96 6.98-28.27zM30.1 32.68c5.8-3.5 10-.96 15.3 2.25.87.53 1.77 1.08 2.69 1.6 3.36 1.9 7.44 3.77 12.29 3.2a2.37 2.37 0 1 0-.56-4.71c-2.82.33-5.4-.56-7.78-1.76l.3-1.18c1.5-6.01 2.68-10.77 9.26-12.38 8.7-2.13 22.32 17.31 29.24 30.64-1.57 3.85-9.4 13.8-26.47 20.83-17.06 7.03-29.62 5.48-33.45 3.86-4.48-14.34-8.5-37.75-.82-42.35zM103.17 67c-7.11 8.9-18.26 16.78-31.38 22.19-13.13 5.4-26.59 7.66-37.9 6.35-10.83-1.25-18.3-5.6-21.03-12.24-3.1-7.54.27-17.28 9.03-26.63l.02.13a143.78 143.78 0 0 0 4.77 20.61c.17.53.53.98 1 1.28 2.3 1.44 6.67 2.47 12.46 2.47 7.01 0 16.1-1.51 26.03-5.6 18.12-7.47 28.18-19.05 29.54-24.9a2.4 2.4 0 0 0-.2-1.6c-.19-.38-4.75-9.32-11.13-18l-.08-.1c12.8.46 22.07 5 25.17 12.55 2.74 6.64.5 14.98-6.3 23.49z"/><path fill="#95e0e8" d="M122.57 153.94c-3.27 10.43-.34 20.63 6.55 22.8 6.9 2.15 15.13-4.55 18.4-14.98 3.27-10.43.34-20.63-6.56-22.8-6.89-2.15-15.12 4.55-18.4 14.98z"/><path fill="#63d3d6" d="M131.85 179.52c-1.16 0-2.3-.17-3.44-.52-4.11-1.29-7.2-4.8-8.66-9.9-1.36-4.75-1.17-10.39.55-15.87 1.72-5.49 4.78-10.22 8.6-13.34 4.12-3.35 8.66-4.48 12.78-3.19 8.26 2.6 11.83 13.91 8.11 25.77-3.21 10.24-10.65 17.05-17.94 17.05zm6.44-38.58c-2.05 0-4.25.9-6.38 2.63-3.12 2.54-5.63 6.47-7.08 11.08-1.44 4.6-1.62 9.27-.51 13.13 1 3.51 2.97 5.89 5.51 6.69 5.54 1.73 12.6-4.41 15.43-13.42 2.82-9 .53-18.08-5-19.82-.64-.2-1.3-.3-1.97-.3z"/><path fill="#b2b8c4" d="m123.5 147.36-.97-4.5a9.75 9.75 0 0 1 7.47-11.59l.64-.14c-.63-5.09 1.23-9.12 4.77-9.89 4.23-.92 6.69 3.33 8.86 12.63a9.7 9.7 0 0 1 1.82 3.89l.97 4.5a9.75 9.75 0 0 1-7.46 11.6l-4.5.97a9.75 9.75 0 0 1-11.6-7.47z"/><path fill="#70838e" d="m149.38 141.75-.97-4.5a12.04 12.04 0 0 0-1.95-4.42c-1.26-5.4-3.88-15.57-11.55-13.9-4.25.9-6.82 4.98-6.77 10.4a12.14 12.14 0 0 0-7.93 14.04l.97 4.5a12.15 12.15 0 0 0 14.43 9.28l4.5-.98a12.14 12.14 0 0 0 9.27-14.42zm-13.47-18.18c.78-.17 2.35-.5 4.27 4.69a12.05 12.05 0 0 0-6.2-.29l-1.05.23c.23-2.49 1.32-4.28 2.98-4.63zm3.19 27.96-4.5.98a7.39 7.39 0 0 1-8.77-5.65l-.98-4.5a7.39 7.39 0 0 1 5.65-8.77l4.5-.97a7.36 7.36 0 0 1 8.77 5.64l.97 4.5a7.39 7.39 0 0 1-5.64 8.77z"/></svg>